<svg width="24" height="24" viewBox="0 0 24 24" fill="none" xmlns="http://www.w3.org/2000/svg">
<path d="M16.9781 15.3281L16.9659 15.3444L16.9803 15.3588L21.3903 19.7688C21.5856 19.9875 21.6898 20.2727 21.6816 20.5658C21.6734 20.8591 21.5532 21.1382 21.3457 21.3457C21.1382 21.5532 20.8591 21.6734 20.5658 21.6816C20.2727 21.6898 19.9875 21.5856 19.7688 21.3903L15.3588 16.9803L15.3444 16.9659L15.3281 16.9781C13.9186 18.0369 12.2029 18.6085 10.44 18.6066C5.93701 18.6066 2.27344 14.943 2.27344 10.44C2.27344 5.93701 5.93701 2.27344 10.44 2.27344C14.943 2.27344 18.6066 5.93701 18.6066 10.44C18.6085 12.2029 18.0369 13.9186 16.9781 15.3281ZM4.56656 10.44V10.44C4.56843 11.9972 5.18783 13.49 6.28891 14.5911C7.38998 15.6922 8.88282 16.3116 10.44 16.3134H10.44C11.6017 16.3134 12.7372 15.969 13.7031 15.3236C14.669 14.6782 15.4218 13.7609 15.8664 12.6877C16.3109 11.6144 16.4272 10.4335 16.2006 9.29415C15.974 8.15481 15.4146 7.10827 14.5931 6.28685C13.7717 5.46544 12.7252 4.90605 11.5859 4.67942C10.4465 4.45279 9.26556 4.56911 8.19233 5.01365C7.1191 5.4582 6.2018 6.21101 5.55642 7.17689C4.91103 8.14278 4.56656 9.27834 4.56656 10.44Z" fill="#232321" stroke="#232321" stroke-width="0.046875"/>
</svg>
